          The.Private.Lives.Of.Pippa.Lee.2009.SWESUB.DVDRip.XviD.AC3-Zen_Bud



General
Complete name                    : The.Private.Lives.Of.Pippa.Lee.2009.avi
Format                           : AVI
File size                        : 1.37 GiB
Duration                         : 1h 34mn
Overall bit rate                 : 2 074 Kbps

Video

Format                           : MPEG-4 Visual
Codec ID/Hint                    : XviD
Duration                         : 1h 34mn
Bit rate                         : 1 616 Kbps
Width                            : 720 pixels
Height                           : 576 pixels
Display aspect ratio             : 16:9
Stream size                      : 1.07 GiB (78%)
Writing library                  : XviD 1.1.2 (UTC 2006-11-01)

Audio

Format                           : AC-3
Duration                         : 1h 34mn
Bit rate                         : 448 Kbps
Channel(s)                       : 6 channels
Channel positions                : Front: L C R, Side: L R, LFE
Sampling rate                    : 48.0 KHz
Stream size                      : 303 MiB (22%)


